<svg width="12" height="12" viewBox="0 0 12 12" fill="none" xmlns="http://www.w3.org/2000/svg">
<path d="M4.25 2.96466H5.40469V8.2506C5.40469 8.31935 5.46094 8.3756 5.52969 8.3756H6.46719C6.53594 8.3756 6.59219 8.31935 6.59219 8.2506V2.96466H7.75C7.85469 2.96466 7.9125 2.84435 7.84844 2.7631L6.09844 0.547472C6.08674 0.532532 6.0718 0.520449 6.05475 0.51214C6.03769 0.50383 6.01897 0.499512 6 0.499512C5.98103 0.499512 5.96231 0.50383 5.94525 0.51214C5.92819 0.520449 5.91326 0.532532 5.90156 0.547472L4.15156 2.76154C4.0875 2.84435 4.14531 2.96466 4.25 2.96466ZM11.7188 7.78185H10.7812C10.7125 7.78185 10.6562 7.8381 10.6562 7.90685V10.3131H1.34375V7.90685C1.34375 7.8381 1.2875 7.78185 1.21875 7.78185H0.28125C0.2125 7.78185 0.15625 7.8381 0.15625 7.90685V11.0006C0.15625 11.2772 0.379687 11.5006 0.65625 11.5006H11.3438C11.6203 11.5006 11.8438 11.2772 11.8438 11.0006V7.90685C11.8438 7.8381 11.7875 7.78185 11.7188 7.78185Z" fill="#434343" />
</svg>
